<svg xmlns="http://www.w3.org/2000/svg" viewBox="0 0 512 512" style="height: 512px; width: 512px;"><g class="" transform="translate(0,0)" style=""><g><path d="M356.688 19.188C349.858 19.156 343.851 19.828 338.563 21.031C314.385 26.526 302.126 43.014 287.625 62.188C273.125 81.363 256.308 103.181 224.845 109.658C195.08 115.78 154.27 108.253 91.25 78.5C81.237 123.38 57.844 207.12 30.344 257.156C90.437 285.656 127.589 292.082 151.344 288.031C151.354 288.031 151.364 288.035 151.374 288.031C172.964 282.204 185.861 267.937 199.25 244.939C216.264 215.712 231.813 172.741 259.5 121.751L275.906 130.689C259.216 161.424 247.104 189.306 235.906 213.626C244.458 207.114 254.539 201.856 266.969 199.032C294.679 192.736 332.022 198.537 388.624 223.782C381.692 194.506 386.739 161.869 398.499 131.564C411.185 98.874 431.537 68.657 454.779 47.534C412.184 27.981 381.627 19.98 359.655 19.252C358.645 19.219 357.662 19.194 356.685 19.189Z" class="selected" fill="#ff3636" fill-opacity="1" stroke="#c3212a" stroke-opacity="1" stroke-width="8"></path><path d="M484.228 33.332C483.37 33.307 482.476 33.394 481.564 33.598C477.186 34.575 472.624 38.022 469.48 44.695L289.53 497.31L313.14 497.31L490.972 49.368C494.447 39.215 490.222 33.508 484.226 33.333Z" class="" fill="#79461c" fill-opacity="1"></path></g></g></svg>